<?xml version="1.0" encoding="utf-8"?>
<!-- Generator: Adobe Illustrator 19.2.1, SVG Export Plug-In . SVG Version: 6.00 Build 0)  -->
<svg version="1.1" id="Layer_1" xmlns="http://www.w3.org/2000/svg" xmlns:xlink="http://www.w3.org/1999/xlink" x="0px" y="0px"
	 viewBox="0 0 157.7 37.2" style="enable-background:new 0 0 157.7 37.2;" xml:space="preserve">
<style type="text/css">
	.st0{fill:#FF9068;}
</style>
<g>
	<path class="st0" d="M48.4,13.1c1-1.7,3.2-2.7,5.3-2.7c4.1,0,7.6,3.1,7.6,7.9c0,4.8-3.4,7.8-7.6,7.8c-2.1,0-4.3-0.8-5.3-2.6v9.6
		h-2.9V10.8h2.9V13.1z M53.4,23.4c2.7,0,4.9-1.9,4.9-4.9c0-3-2.2-5.1-4.9-5.1c-2.7,0-5,1.9-5,5.1C48.4,21.7,50.9,23.4,53.4,23.4z"/>
	<path class="st0" d="M66.6,3.3c1.1,0,2,0.8,2,1.9c0,1.1-0.9,1.9-2,1.9c-1.1,0-2-0.8-2-1.9C64.6,4.1,65.5,3.3,66.6,3.3z M68.1,10.8
		h-2.9v15.1h2.9V10.8z"/>
	<path class="st0" d="M72,18.3c0-4.8,3.6-7.8,7.9-7.8c4.3,0,7.9,3,7.9,7.8c0,4.8-3.6,7.9-7.9,7.9C75.6,26.2,72,23.1,72,18.3z
		 M84.9,18.3c0-3-2.3-5-5-5c-2.7,0-5,1.9-5,5c0,3.1,2.3,5.1,5,5.1C82.6,23.4,84.9,21.4,84.9,18.3z"/>
	<path class="st0" d="M94.7,25.9h-2.9V10.8h2.9v2.3c0.9-1.8,3.1-2.6,4.7-2.6c3.8,0,5.8,2.5,5.8,6.7v8.8c-0.5,0-2.5,0-2.9,0v-8.6
		c0-2.5-1.3-4-3.3-4c-2.1,0-4.3,1.2-4.3,4.4V25.9z"/>
	<path class="st0" d="M124.3,19.5H112c0.4,2.5,2.3,4.1,4.9,4.1c1.8,0,3.5-0.8,4.3-2.3c0.8,0.3,1.7,0.6,2.5,1c-1.3,2.7-4.1,4-7,4
		c-4.3,0-7.7-3.1-7.7-7.9c0-4.8,3.4-7.8,7.7-7.8c4.3,0,7.5,3,7.5,7.8C124.3,18.7,124.3,19.1,124.3,19.5z M121.4,17.2
		c-0.4-2.5-2.2-4.1-4.6-4.1c-2.5,0-4.4,1.5-4.8,4.1H121.4z"/>
	<path class="st0" d="M140.1,23.6c-1,1.7-3.2,2.7-5.3,2.7c-4.1,0-7.7-3.1-7.7-7.9c0-4.8,3.5-7.9,7.7-7.9c2.1,0,4.3,0.9,5.3,2.6v-2.3
		h2.9v15.1h-2.9V23.6z M135,13.3c-2.7,0-4.9,1.9-4.9,5c0,3,2.2,5.1,4.9,5.1c2.7,0,5-1.8,5-5.1C140,15.1,137.4,13.3,135,13.3z"/>
	<path class="st0" d="M150.9,25.9h-2.9V10.8h2.9v3.4c0.8-2.7,2.2-3.7,4.2-3.7c1.1,0,2.2,0.3,2.6,0.6l-0.5,2.8
		c-0.8-0.4-1.6-0.5-2.2-0.5c-2.9,0-4.1,3.1-4.1,7.1V25.9z"/>
</g>
<g>
	<path class="st0" d="M18.6,37.2C8.3,37.2,0,28.9,0,18.6S8.3,0,18.6,0s18.6,8.3,18.6,18.6S28.9,37.2,18.6,37.2z M18.6,2.1
		C9.5,2.1,2.1,9.5,2.1,18.6c0,9.1,7.4,16.5,16.5,16.5s16.5-7.4,16.5-16.5C35.1,9.5,27.7,2.1,18.6,2.1z"/>
</g>
<path class="st0" d="M14.9,14.5l-4.1,12l12-4.1l4.1-12L14.9,14.5z M16.1,17.2l4,4l-6,2L16.1,17.2z M21.5,19.7l-4-4l6-2L21.5,19.7z"
	/>
</svg>
